<svg width="363" height="40" viewBox="0 0 363 40" fill="none" xmlns="http://www.w3.org/2000/svg">
<path d="M42.992 5.73599V32.76H55.952L55.136 39H35.12V5.73599H42.992Z" fill="black"/>
<path d="M80.3862 39H73.8102L73.4742 35.784C71.6182 38.472 69.0422 39.816 65.7462 39.816C63.4102 39.816 61.6342 39.112 60.4182 37.704C59.2342 36.296 58.6422 34.328 58.6422 31.8V13.512H66.2262V30.84C66.2262 32.088 66.4182 32.968 66.8022 33.48C67.2182 33.96 67.8422 34.2 68.6742 34.2C70.2742 34.2 71.6502 33.208 72.8022 31.224V13.512H80.3862V39Z" fill="black"/>
<path d="M97.391 12.696C99.151 12.696 100.735 12.952 102.143 13.464C103.551 13.976 104.879 14.76 106.127 15.816L102.863 20.328C101.263 19.112 99.647 18.504 98.015 18.504C96.319 18.504 95.039 19.128 94.175 20.376C93.311 21.624 92.879 23.64 92.879 26.424C92.879 29.112 93.311 31.016 94.175 32.136C95.039 33.256 96.287 33.816 97.919 33.816C98.783 33.816 99.567 33.688 100.271 33.432C100.975 33.144 101.823 32.696 102.815 32.088L106.127 36.792C103.599 38.808 100.735 39.816 97.535 39.816C94.943 39.816 92.703 39.272 90.815 38.184C88.927 37.064 87.471 35.512 86.447 33.528C85.423 31.512 84.911 29.16 84.911 26.472C84.911 23.784 85.423 21.4 86.447 19.32C87.471 17.24 88.927 15.624 90.815 14.472C92.703 13.288 94.895 12.696 97.391 12.696Z" fill="black"/>
<path d="M116.904 13.512V39H109.32V13.512H116.904ZM113.064 0.071991C114.376 0.071991 115.448 0.487991 116.28 1.31999C117.144 2.11999 117.576 3.14399 117.576 4.39199C117.576 5.63999 117.144 6.67999 116.28 7.51199C115.448 8.31199 114.376 8.71199 113.064 8.71199C111.752 8.71199 110.68 8.31199 109.848 7.51199C109.016 6.67999 108.6 5.63999 108.6 4.39199C108.6 3.14399 109.016 2.11999 109.848 1.31999C110.68 0.487991 111.752 0.071991 113.064 0.071991Z" fill="black"/>
<path d="M143.123 31.608C143.123 32.568 143.251 33.272 143.507 33.72C143.795 34.168 144.243 34.504 144.851 34.728L143.267 39.672C141.699 39.544 140.419 39.208 139.427 38.664C138.435 38.088 137.667 37.192 137.123 35.976C135.459 38.536 132.899 39.816 129.443 39.816C126.915 39.816 124.899 39.08 123.395 37.608C121.891 36.136 121.139 34.216 121.139 31.848C121.139 29.064 122.163 26.936 124.211 25.464C126.259 23.992 129.219 23.256 133.091 23.256H135.683V22.152C135.683 20.648 135.363 19.624 134.723 19.08C134.083 18.504 132.963 18.216 131.363 18.216C130.531 18.216 129.523 18.344 128.339 18.6C127.155 18.824 125.939 19.144 124.691 19.56L122.963 14.568C124.563 13.96 126.195 13.496 127.859 13.176C129.555 12.856 131.123 12.696 132.563 12.696C136.211 12.696 138.883 13.448 140.579 14.952C142.275 16.456 143.123 18.712 143.123 21.72V31.608ZM131.651 34.392C133.379 34.392 134.723 33.576 135.683 31.944V27.432H133.811C132.083 27.432 130.787 27.736 129.923 28.344C129.091 28.952 128.675 29.896 128.675 31.176C128.675 32.2 128.931 33 129.443 33.576C129.987 34.12 130.723 34.392 131.651 34.392Z" fill="black"/>
<path d="M164.091 12.696C166.299 12.696 168.027 13.368 169.275 14.712C170.523 16.056 171.147 17.944 171.147 20.376V39H163.563V21.672C163.563 20.392 163.355 19.512 162.939 19.032C162.555 18.52 161.964 18.264 161.163 18.264C159.627 18.264 158.155 19.368 156.747 21.576V39H149.163V13.512H155.787L156.315 16.536C157.403 15.256 158.571 14.296 159.819 13.656C161.099 13.016 162.523 12.696 164.091 12.696Z" fill="black"/>
<path d="M187.907 12.696C191.811 12.696 194.867 13.896 197.075 16.296C199.283 18.664 200.387 21.992 200.387 26.28C200.387 29 199.875 31.384 198.851 33.432C197.859 35.448 196.419 37.016 194.531 38.136C192.675 39.256 190.467 39.816 187.907 39.816C184.035 39.816 180.979 38.632 178.739 36.264C176.531 33.864 175.427 30.52 175.427 26.232C175.427 23.512 175.923 21.144 176.915 19.128C177.939 17.08 179.379 15.496 181.235 14.376C183.123 13.256 185.347 12.696 187.907 12.696ZM187.907 18.264C186.371 18.264 185.219 18.92 184.451 20.232C183.683 21.512 183.299 23.512 183.299 26.232C183.299 29.016 183.667 31.048 184.403 32.328C185.171 33.608 186.339 34.248 187.907 34.248C189.443 34.248 190.595 33.608 191.363 32.328C192.131 31.016 192.515 29 192.515 26.28C192.515 23.496 192.131 21.464 191.363 20.184C190.627 18.904 189.475 18.264 187.907 18.264Z" fill="black"/>
<path d="M227.136 4.91999C229.632 4.91999 231.792 5.27199 233.617 5.97599C235.473 6.67999 237.152 7.75199 238.656 9.19199L235.008 13.464C232.736 11.608 230.304 10.68 227.712 10.68C226.336 10.68 225.249 10.968 224.449 11.544C223.648 12.088 223.248 12.888 223.248 13.944C223.248 14.68 223.424 15.288 223.776 15.768C224.128 16.216 224.753 16.648 225.648 17.064C226.544 17.48 227.888 17.976 229.68 18.552C233.072 19.64 235.568 20.984 237.169 22.584C238.769 24.152 239.568 26.392 239.568 29.304C239.568 31.384 239.04 33.224 237.984 34.824C236.928 36.392 235.408 37.624 233.424 38.52C231.441 39.384 229.089 39.816 226.368 39.816C223.648 39.816 221.232 39.384 219.12 38.52C217.04 37.656 215.248 36.504 213.744 35.064L217.729 30.696C219.008 31.784 220.32 32.6 221.664 33.144C223.04 33.688 224.528 33.96 226.128 33.96C227.76 33.96 229.04 33.608 229.968 32.904C230.928 32.168 231.408 31.16 231.408 29.88C231.408 29.048 231.232 28.36 230.88 27.816C230.528 27.24 229.92 26.728 229.056 26.28C228.192 25.832 226.945 25.352 225.312 24.84C221.633 23.72 219.008 22.344 217.44 20.712C215.904 19.08 215.136 17.016 215.136 14.52C215.136 12.6 215.648 10.92 216.673 9.47999C217.697 8.00799 219.12 6.88799 220.944 6.11999C222.768 5.31999 224.832 4.91999 227.136 4.91999Z" fill="black"/>
<path d="M264.013 31.608C264.013 32.568 264.141 33.272 264.397 33.72C264.685 34.168 265.133 34.504 265.741 34.728L264.157 39.672C262.589 39.544 261.309 39.208 260.317 38.664C259.325 38.088 258.557 37.192 258.013 35.976C256.349 38.536 253.789 39.816 250.333 39.816C247.805 39.816 245.789 39.08 244.285 37.608C242.781 36.136 242.029 34.216 242.029 31.848C242.029 29.064 243.053 26.936 245.101 25.464C247.149 23.992 250.109 23.256 253.981 23.256H256.573V22.152C256.573 20.648 256.253 19.624 255.613 19.08C254.973 18.504 253.853 18.216 252.253 18.216C251.421 18.216 250.413 18.344 249.229 18.6C248.045 18.824 246.829 19.144 245.581 19.56L243.853 14.568C245.453 13.96 247.085 13.496 248.749 13.176C250.445 12.856 252.013 12.696 253.453 12.696C257.101 12.696 259.773 13.448 261.469 14.952C263.165 16.456 264.013 18.712 264.013 21.72V31.608ZM252.541 34.392C254.269 34.392 255.613 33.576 256.573 31.944V27.432H254.701C252.973 27.432 251.677 27.736 250.813 28.344C249.981 28.952 249.565 29.896 249.565 31.176C249.565 32.2 249.821 33 250.333 33.576C250.877 34.12 251.613 34.392 252.541 34.392Z" fill="black"/>
<path d="M284.982 12.696C287.19 12.696 288.918 13.368 290.166 14.712C291.414 16.056 292.038 17.944 292.038 20.376V39H284.454V21.672C284.454 20.392 284.246 19.512 283.83 19.032C283.446 18.52 282.854 18.264 282.054 18.264C280.518 18.264 279.046 19.368 277.638 21.576V39H270.054V13.512H276.678L277.206 16.536C278.294 15.256 279.462 14.296 280.71 13.656C281.99 13.016 283.414 12.696 284.982 12.696Z" fill="black"/>
<path d="M313.741 37.8C312.813 38.44 311.725 38.936 310.477 39.288C309.261 39.64 308.045 39.816 306.829 39.816C301.261 39.784 298.477 36.712 298.477 30.6V18.792H294.877V13.512H298.477V7.99199L306.061 7.12799V13.512H311.917L311.101 18.792H306.061V30.504C306.061 31.688 306.253 32.536 306.637 33.048C307.021 33.56 307.629 33.816 308.461 33.816C309.325 33.816 310.237 33.544 311.197 33L313.741 37.8Z" fill="black"/>
<path d="M326.469 12.696C330.373 12.696 333.429 13.896 335.637 16.296C337.845 18.664 338.949 21.992 338.949 26.28C338.949 29 338.437 31.384 337.413 33.432C336.421 35.448 334.981 37.016 333.093 38.136C331.237 39.256 329.029 39.816 326.469 39.816C322.597 39.816 319.541 38.632 317.301 36.264C315.093 33.864 313.989 30.52 313.989 26.232C313.989 23.512 314.485 21.144 315.477 19.128C316.501 17.08 317.941 15.496 319.797 14.376C321.685 13.256 323.909 12.696 326.469 12.696ZM326.469 18.264C324.933 18.264 323.781 18.92 323.013 20.232C322.245 21.512 321.861 23.512 321.861 26.232C321.861 29.016 322.229 31.048 322.965 32.328C323.733 33.608 324.901 34.248 326.469 34.248C328.005 34.248 329.157 33.608 329.925 32.328C330.693 31.016 331.077 29 331.077 26.28C331.077 23.496 330.693 21.464 329.925 20.184C329.189 18.904 328.037 18.264 326.469 18.264Z" fill="black"/>
<path d="M352.436 12.696C354.26 12.696 355.972 12.968 357.572 13.512C359.172 14.056 360.58 14.824 361.796 15.816L359.012 20.088C356.932 18.776 354.836 18.12 352.724 18.12C351.732 18.12 350.964 18.296 350.42 18.648C349.908 18.968 349.652 19.432 349.652 20.04C349.652 20.52 349.764 20.92 349.988 21.24C350.244 21.528 350.74 21.832 351.476 22.152C352.212 22.472 353.348 22.856 354.884 23.304C357.54 24.072 359.508 25.08 360.788 26.328C362.1 27.544 362.756 29.24 362.756 31.416C362.756 33.144 362.26 34.648 361.268 35.928C360.276 37.176 358.916 38.136 357.188 38.808C355.46 39.48 353.54 39.816 351.428 39.816C349.284 39.816 347.284 39.48 345.428 38.808C343.604 38.136 342.052 37.208 340.772 36.024L344.468 31.896C346.612 33.56 348.868 34.392 351.236 34.392C352.388 34.392 353.284 34.184 353.924 33.768C354.596 33.352 354.932 32.76 354.932 31.992C354.932 31.384 354.804 30.904 354.548 30.552C354.292 30.2 353.796 29.88 353.06 29.592C352.324 29.272 351.156 28.888 349.556 28.44C347.028 27.704 345.14 26.68 343.892 25.368C342.644 24.056 342.02 22.424 342.02 20.472C342.02 19 342.436 17.688 343.268 16.536C344.132 15.352 345.348 14.424 346.916 13.752C348.516 13.048 350.356 12.696 352.436 12.696Z" fill="black"/>
<g clip-path="url(#clip0_24_2)">
<path d="M7.15462 22.432L20.4146 16.6L21.6506 19.288L8.36662 25.18L7.15462 22.432ZM7.93462 28.672L21.2066 22.828L22.4426 25.504L9.14662 31.432L7.93462 28.672ZM7.15462 13.42L8.36662 10.66L21.6506 16.564V19.288L20.4146 19.252L7.15462 13.42Z" fill="url(#paint0_linear_24_2)"/>
</g>
<defs>
<linearGradient id="paint0_linear_24_2" x1="16" y1="4" x2="16" y2="36" gradientUnits="userSpaceOnUse">
<stop stop-color="#C63DD5"/>
<stop offset="1" stop-color="#67206F"/>
</linearGradient>
<clipPath id="clip0_24_2">
<rect width="32" height="32" fill="white" transform="translate(0 4)"/>
</clipPath>
</defs>
</svg>
