<svg width="328" height="40" viewBox="0 0 328 40" fill="none" xmlns="http://www.w3.org/2000/svg">
<path d="M7.992 5.73599V32.76H20.952L20.136 39H0.119995V5.73599H7.992Z" fill="black"/>
<path d="M45.3862 39H38.8102L38.4742 35.784C36.6182 38.472 34.0422 39.816 30.7462 39.816C28.4102 39.816 26.6342 39.112 25.4182 37.704C24.2342 36.296 23.6422 34.328 23.6422 31.8V13.512H31.2262V30.84C31.2262 32.088 31.4182 32.968 31.8022 33.48C32.2182 33.96 32.8422 34.2 33.6742 34.2C35.2742 34.2 36.6502 33.208 37.8022 31.224V13.512H45.3862V39Z" fill="black"/>
<path d="M62.391 12.696C64.151 12.696 65.735 12.952 67.143 13.464C68.551 13.976 69.879 14.76 71.127 15.816L67.863 20.328C66.263 19.112 64.647 18.504 63.015 18.504C61.319 18.504 60.039 19.128 59.175 20.376C58.311 21.624 57.879 23.64 57.879 26.424C57.879 29.112 58.311 31.016 59.175 32.136C60.039 33.256 61.287 33.816 62.919 33.816C63.783 33.816 64.567 33.688 65.271 33.432C65.975 33.144 66.823 32.696 67.815 32.088L71.127 36.792C68.599 38.808 65.735 39.816 62.535 39.816C59.943 39.816 57.703 39.272 55.815 38.184C53.927 37.064 52.471 35.512 51.447 33.528C50.423 31.512 49.911 29.16 49.911 26.472C49.911 23.784 50.423 21.4 51.447 19.32C52.471 17.24 53.927 15.624 55.815 14.472C57.703 13.288 59.895 12.696 62.391 12.696Z" fill="black"/>
<path d="M81.9037 13.512V39H74.3197V13.512H81.9037ZM78.0637 0.071991C79.3757 0.071991 80.4477 0.487991 81.2797 1.31999C82.1437 2.11999 82.5757 3.14399 82.5757 4.39199C82.5757 5.63999 82.1437 6.67999 81.2797 7.51199C80.4477 8.31199 79.3757 8.71199 78.0637 8.71199C76.7517 8.71199 75.6797 8.31199 74.8477 7.51199C74.0157 6.67999 73.5997 5.63999 73.5997 4.39199C73.5997 3.14399 74.0157 2.11999 74.8477 1.31999C75.6797 0.487991 76.7517 0.071991 78.0637 0.071991Z" fill="black"/>
<path d="M108.123 31.608C108.123 32.568 108.251 33.272 108.507 33.72C108.795 34.168 109.243 34.504 109.851 34.728L108.267 39.672C106.699 39.544 105.419 39.208 104.427 38.664C103.435 38.088 102.667 37.192 102.123 35.976C100.459 38.536 97.8986 39.816 94.4426 39.816C91.9146 39.816 89.8986 39.08 88.3946 37.608C86.8906 36.136 86.1386 34.216 86.1386 31.848C86.1386 29.064 87.1626 26.936 89.2106 25.464C91.2586 23.992 94.2186 23.256 98.0906 23.256H100.683V22.152C100.683 20.648 100.363 19.624 99.7226 19.08C99.0826 18.504 97.9626 18.216 96.3626 18.216C95.5306 18.216 94.5226 18.344 93.3386 18.6C92.1546 18.824 90.9386 19.144 89.6906 19.56L87.9626 14.568C89.5626 13.96 91.1946 13.496 92.8586 13.176C94.5546 12.856 96.1226 12.696 97.5626 12.696C101.211 12.696 103.883 13.448 105.579 14.952C107.275 16.456 108.123 18.712 108.123 21.72V31.608ZM96.6506 34.392C98.3786 34.392 99.7226 33.576 100.683 31.944V27.432H98.8106C97.0826 27.432 95.7866 27.736 94.9226 28.344C94.0906 28.952 93.6746 29.896 93.6746 31.176C93.6746 32.2 93.9306 33 94.4426 33.576C94.9866 34.12 95.7226 34.392 96.6506 34.392Z" fill="black"/>
<path d="M129.091 12.696C131.299 12.696 133.027 13.368 134.275 14.712C135.523 16.056 136.147 17.944 136.147 20.376V39H128.563V21.672C128.563 20.392 128.355 19.512 127.939 19.032C127.555 18.52 126.963 18.264 126.163 18.264C124.627 18.264 123.155 19.368 121.747 21.576V39H114.163V13.512H120.787L121.315 16.536C122.403 15.256 123.571 14.296 124.819 13.656C126.099 13.016 127.523 12.696 129.091 12.696Z" fill="black"/>
<path d="M152.907 12.696C156.811 12.696 159.867 13.896 162.075 16.296C164.283 18.664 165.387 21.992 165.387 26.28C165.387 29 164.875 31.384 163.851 33.432C162.859 35.448 161.419 37.016 159.531 38.136C157.675 39.256 155.467 39.816 152.907 39.816C149.035 39.816 145.979 38.632 143.739 36.264C141.531 33.864 140.427 30.52 140.427 26.232C140.427 23.512 140.923 21.144 141.915 19.128C142.939 17.08 144.379 15.496 146.235 14.376C148.123 13.256 150.347 12.696 152.907 12.696ZM152.907 18.264C151.371 18.264 150.219 18.92 149.451 20.232C148.683 21.512 148.299 23.512 148.299 26.232C148.299 29.016 148.667 31.048 149.403 32.328C150.171 33.608 151.339 34.248 152.907 34.248C154.443 34.248 155.595 33.608 156.363 32.328C157.131 31.016 157.515 29 157.515 26.28C157.515 23.496 157.131 21.464 156.363 20.184C155.627 18.904 154.475 18.264 152.907 18.264Z" fill="black"/>
<path d="M192.136 4.91999C194.632 4.91999 196.793 5.27199 198.617 5.97599C200.473 6.67999 202.152 7.75199 203.656 9.19199L200.008 13.464C197.736 11.608 195.304 10.68 192.712 10.68C191.336 10.68 190.249 10.968 189.449 11.544C188.649 12.088 188.248 12.888 188.248 13.944C188.248 14.68 188.424 15.288 188.776 15.768C189.128 16.216 189.752 16.648 190.648 17.064C191.544 17.48 192.888 17.976 194.68 18.552C198.072 19.64 200.569 20.984 202.169 22.584C203.769 24.152 204.568 26.392 204.568 29.304C204.568 31.384 204.04 33.224 202.984 34.824C201.928 36.392 200.408 37.624 198.424 38.52C196.44 39.384 194.089 39.816 191.368 39.816C188.648 39.816 186.232 39.384 184.12 38.52C182.04 37.656 180.248 36.504 178.744 35.064L182.729 30.696C184.009 31.784 185.32 32.6 186.664 33.144C188.04 33.688 189.528 33.96 191.128 33.96C192.76 33.96 194.04 33.608 194.968 32.904C195.928 32.168 196.408 31.16 196.408 29.88C196.408 29.048 196.232 28.36 195.88 27.816C195.528 27.24 194.92 26.728 194.056 26.28C193.192 25.832 191.945 25.352 190.312 24.84C186.633 23.72 184.008 22.344 182.44 20.712C180.904 19.08 180.136 17.016 180.136 14.52C180.136 12.6 180.649 10.92 181.673 9.47999C182.697 8.00799 184.12 6.88799 185.944 6.11999C187.768 5.31999 189.832 4.91999 192.136 4.91999Z" fill="black"/>
<path d="M229.013 31.608C229.013 32.568 229.141 33.272 229.397 33.72C229.685 34.168 230.133 34.504 230.741 34.728L229.157 39.672C227.589 39.544 226.309 39.208 225.317 38.664C224.325 38.088 223.557 37.192 223.013 35.976C221.349 38.536 218.789 39.816 215.333 39.816C212.805 39.816 210.789 39.08 209.285 37.608C207.781 36.136 207.029 34.216 207.029 31.848C207.029 29.064 208.053 26.936 210.101 25.464C212.149 23.992 215.109 23.256 218.981 23.256H221.573V22.152C221.573 20.648 221.253 19.624 220.613 19.08C219.973 18.504 218.853 18.216 217.253 18.216C216.421 18.216 215.413 18.344 214.229 18.6C213.045 18.824 211.829 19.144 210.581 19.56L208.853 14.568C210.453 13.96 212.085 13.496 213.749 13.176C215.445 12.856 217.013 12.696 218.453 12.696C222.101 12.696 224.773 13.448 226.469 14.952C228.165 16.456 229.013 18.712 229.013 21.72V31.608ZM217.541 34.392C219.269 34.392 220.613 33.576 221.573 31.944V27.432H219.701C217.973 27.432 216.677 27.736 215.813 28.344C214.981 28.952 214.565 29.896 214.565 31.176C214.565 32.2 214.821 33 215.333 33.576C215.877 34.12 216.613 34.392 217.541 34.392Z" fill="black"/>
<path d="M249.982 12.696C252.19 12.696 253.918 13.368 255.166 14.712C256.414 16.056 257.038 17.944 257.038 20.376V39H249.454V21.672C249.454 20.392 249.246 19.512 248.83 19.032C248.446 18.52 247.854 18.264 247.054 18.264C245.518 18.264 244.046 19.368 242.638 21.576V39H235.054V13.512H241.678L242.206 16.536C243.294 15.256 244.462 14.296 245.71 13.656C246.99 13.016 248.414 12.696 249.982 12.696Z" fill="black"/>
<path d="M278.741 37.8C277.813 38.44 276.725 38.936 275.477 39.288C274.261 39.64 273.045 39.816 271.829 39.816C266.261 39.784 263.477 36.712 263.477 30.6V18.792H259.877V13.512H263.477V7.99199L271.061 7.12799V13.512H276.917L276.101 18.792H271.061V30.504C271.061 31.688 271.253 32.536 271.637 33.048C272.021 33.56 272.629 33.816 273.461 33.816C274.325 33.816 275.237 33.544 276.197 33L278.741 37.8Z" fill="black"/>
<path d="M291.469 12.696C295.373 12.696 298.429 13.896 300.637 16.296C302.845 18.664 303.949 21.992 303.949 26.28C303.949 29 303.437 31.384 302.413 33.432C301.421 35.448 299.981 37.016 298.093 38.136C296.237 39.256 294.029 39.816 291.469 39.816C287.597 39.816 284.541 38.632 282.301 36.264C280.093 33.864 278.989 30.52 278.989 26.232C278.989 23.512 279.485 21.144 280.477 19.128C281.501 17.08 282.941 15.496 284.797 14.376C286.685 13.256 288.909 12.696 291.469 12.696ZM291.469 18.264C289.933 18.264 288.781 18.92 288.013 20.232C287.245 21.512 286.861 23.512 286.861 26.232C286.861 29.016 287.229 31.048 287.965 32.328C288.733 33.608 289.901 34.248 291.469 34.248C293.005 34.248 294.157 33.608 294.925 32.328C295.693 31.016 296.077 29 296.077 26.28C296.077 23.496 295.693 21.464 294.925 20.184C294.189 18.904 293.037 18.264 291.469 18.264Z" fill="black"/>
<path d="M317.436 12.696C319.26 12.696 320.972 12.968 322.572 13.512C324.172 14.056 325.58 14.824 326.796 15.816L324.012 20.088C321.932 18.776 319.836 18.12 317.724 18.12C316.732 18.12 315.964 18.296 315.42 18.648C314.908 18.968 314.652 19.432 314.652 20.04C314.652 20.52 314.764 20.92 314.988 21.24C315.244 21.528 315.74 21.832 316.476 22.152C317.212 22.472 318.348 22.856 319.884 23.304C322.54 24.072 324.508 25.08 325.788 26.328C327.1 27.544 327.756 29.24 327.756 31.416C327.756 33.144 327.26 34.648 326.268 35.928C325.276 37.176 323.916 38.136 322.188 38.808C320.46 39.48 318.54 39.816 316.428 39.816C314.284 39.816 312.284 39.48 310.428 38.808C308.604 38.136 307.052 37.208 305.772 36.024L309.468 31.896C311.612 33.56 313.868 34.392 316.236 34.392C317.388 34.392 318.284 34.184 318.924 33.768C319.596 33.352 319.932 32.76 319.932 31.992C319.932 31.384 319.804 30.904 319.548 30.552C319.292 30.2 318.796 29.88 318.06 29.592C317.324 29.272 316.156 28.888 314.556 28.44C312.028 27.704 310.14 26.68 308.892 25.368C307.644 24.056 307.02 22.424 307.02 20.472C307.02 19 307.436 17.688 308.268 16.536C309.132 15.352 310.348 14.424 311.916 13.752C313.516 13.048 315.356 12.696 317.436 12.696Z" fill="black"/>
</svg>
